<?xml version="1.0" encoding="utf-8" ?>
<svg xmlns="http://www.w3.org/2000/svg" xmlns:xlink="http://www.w3.org/1999/xlink" width="200" height="130">
	<defs>
		<g id="group_0">
			<text fill="#777" font-size="13" font-family="'DejaVu Sans Mono', -apple-system, BlinkMacSystemFont, 'Segoe UI', Roboto, Helvetica, Arial, sans-serif, 'Apple Color Emoji', 'Segoe UI Emoji', 'Segoe UI Symbol'" x="8" y="26.4375">
				 
			</text>
			<path fill="#23A3DD" transform="matrix(0.0334821 0 0 0.0331903 16 13.0033)" d="M439.55 236.05L244 40.45Q243.499 39.9494 242.974 39.4739Q242.449 38.9985 241.901 38.5493Q241.353 38.1002 240.784 37.6785Q240.215 37.2567 239.626 36.8634Q239.037 36.4701 238.43 36.1061Q237.822 35.7422 237.197 35.4085Q236.572 35.0747 235.932 34.7721Q235.292 34.4694 234.637 34.1985Q233.983 33.9276 233.316 33.6891Q232.649 33.4506 231.971 33.2451Q231.293 33.0396 230.606 32.8676Q229.919 32.6955 229.224 32.5574Q228.529 32.4193 227.829 32.3155Q227.128 32.2116 226.423 32.1422Q225.718 32.0728 225.011 32.0381Q224.303 32.0033 223.595 32.0033Q222.887 32.0033 222.179 32.0381Q221.472 32.0728 220.767 32.1422Q220.062 32.2116 219.361 32.3155Q218.661 32.4193 217.966 32.5574Q217.271 32.6955 216.584 32.8676Q215.897 33.0396 215.219 33.2451Q214.541 33.4506 213.874 33.6891Q213.207 33.9275 212.553 34.1985Q211.898 34.4694 211.258 34.772Q210.618 35.0747 209.993 35.4085Q209.368 35.7422 208.761 36.1061Q208.153 36.4701 207.564 36.8634Q206.975 37.2567 206.406 37.6785Q205.837 38.1002 205.289 38.5493Q204.741 38.9985 204.216 39.4739Q203.691 39.9494 203.19 40.45L162.53 81.08L214.05 132.6C241.11 123.46 266.73 149.37 257.44 176.28L307.1 225.94C341.33 214.14 368.28 256.94 342.57 282.63C316.08 309.12 272.36 279.76 286.57 245.29L240.22 199L240.22 320.85C265.52 333.39 262.48 362.7 249.3 375.85Q248.704 376.446 248.079 377.012Q247.455 377.577 246.803 378.112Q246.152 378.646 245.475 379.148Q244.798 379.65 244.097 380.118Q243.396 380.586 242.673 381.019Q241.951 381.452 241.207 381.849Q240.464 382.246 239.702 382.606Q238.94 382.967 238.162 383.289Q237.383 383.611 236.59 383.895Q235.796 384.179 234.99 384.423Q234.183 384.668 233.366 384.873Q232.549 385.077 231.722 385.242Q230.896 385.406 230.062 385.53Q229.228 385.653 228.39 385.736Q227.551 385.818 226.709 385.86Q225.868 385.901 225.025 385.901Q224.182 385.901 223.341 385.86Q222.499 385.818 221.66 385.736Q220.822 385.653 219.988 385.53Q219.155 385.406 218.328 385.242Q217.502 385.077 216.684 384.873Q215.867 384.668 215.06 384.423Q214.254 384.179 213.46 383.895Q212.667 383.611 211.888 383.289Q211.11 382.967 210.348 382.606Q209.586 382.246 208.843 381.849Q208.1 381.452 207.377 381.019Q206.654 380.586 205.953 380.118Q205.252 379.65 204.575 379.148Q203.898 378.646 203.247 378.112Q202.595 377.577 201.971 377.012Q201.346 376.446 200.75 375.85C183.18 358.25 189.68 328.94 212 319.85L212 196.85C191.2 188.34 187.4 166.11 193.36 151.85L142.57 101L8.45 235.14Q7.94915 235.641 7.47348 236.166Q6.99781 236.691 6.54847 237.238Q6.09913 237.786 5.67719 238.355Q5.25526 238.924 4.86175 239.513Q4.46824 240.102 4.1041 240.71Q3.73997 241.317 3.40608 241.942Q3.07219 242.567 2.76935 243.207Q2.46652 243.848 2.19547 244.502Q1.92442 245.157 1.6858 245.824Q1.44718 246.491 1.24158 247.168Q1.03597 247.846 0.863871 248.534Q0.69177 249.221 0.55359 249.915Q0.41541 250.61 0.311482 251.311Q0.207555 252.012 0.13813 252.717Q0.0687059 253.422 0.0339519 254.129Q-0.000802187 254.837 -0.000802187 255.545Q-0.000802187 256.253 0.0339519 256.961Q0.0687059 257.668 0.13813 258.373Q0.207555 259.078 0.311482 259.779Q0.41541 260.48 0.55359 261.175Q0.69177 261.869 0.863871 262.557Q1.03597 263.244 1.24158 263.922Q1.44718 264.599 1.6858 265.266Q1.92442 265.933 2.19547 266.588Q2.46652 267.242 2.76935 267.883Q3.07219 268.523 3.40608 269.148Q3.73996 269.773 4.1041 270.38Q4.46824 270.988 4.86175 271.577Q5.25526 272.166 5.67719 272.735Q6.09913 273.304 6.54847 273.852Q6.99781 274.399 7.47348 274.924Q7.94915 275.449 8.45 275.95L204.06 471.55Q204.561 472.051 205.086 472.526Q205.611 473.001 206.158 473.45Q206.706 473.9 207.275 474.321Q207.844 474.743 208.432 475.136Q209.021 475.53 209.629 475.893Q210.236 476.257 210.861 476.591Q211.486 476.925 212.126 477.227Q212.766 477.53 213.42 477.801Q214.075 478.072 214.741 478.31Q215.408 478.549 216.086 478.754Q216.764 478.96 217.451 479.132Q218.138 479.304 218.832 479.442Q219.527 479.58 220.227 479.684Q220.928 479.788 221.632 479.857Q222.337 479.926 223.045 479.961Q223.752 479.996 224.46 479.996Q225.168 479.996 225.875 479.961Q226.583 479.926 227.288 479.857Q227.992 479.788 228.693 479.684Q229.393 479.58 230.088 479.442Q230.782 479.304 231.469 479.132Q232.156 478.96 232.834 478.754Q233.512 478.549 234.179 478.31Q234.845 478.072 235.5 477.801Q236.154 477.53 236.794 477.227Q237.434 476.925 238.059 476.591Q238.684 476.257 239.291 475.893Q239.899 475.53 240.487 475.136Q241.076 474.743 241.645 474.321Q242.214 473.9 242.762 473.45Q243.309 473.001 243.834 472.526Q244.359 472.051 244.86 471.55L439.55 276.86Q440.051 276.359 440.526 275.834Q441.002 275.309 441.451 274.762Q441.901 274.214 442.323 273.645Q442.745 273.076 443.138 272.487Q443.532 271.898 443.896 271.29Q444.26 270.683 444.594 270.058Q444.928 269.433 445.231 268.793Q445.534 268.152 445.805 267.498Q446.076 266.843 446.314 266.176Q446.553 265.509 446.758 264.832Q446.964 264.154 447.136 263.467Q447.308 262.779 447.446 262.085Q447.585 261.39 447.689 260.689Q447.792 259.988 447.862 259.283Q447.931 258.578 447.966 257.871Q448.001 257.163 448.001 256.455Q448.001 255.747 447.966 255.039Q447.931 254.332 447.862 253.627Q447.792 252.922 447.689 252.221Q447.585 251.52 447.446 250.825Q447.308 250.131 447.136 249.443Q446.964 248.756 446.758 248.078Q446.553 247.401 446.314 246.734Q446.076 246.067 445.805 245.412Q445.534 244.758 445.231 244.117Q444.928 243.477 444.594 242.852Q444.26 242.227 443.896 241.62Q443.532 241.012 443.138 240.423Q442.745 239.834 442.323 239.265Q441.901 238.696 441.451 238.148Q441.002 237.601 440.526 237.076Q440.051 236.551 439.55 236.05L439.55 236.05Z"/>
			<text fill="#777" font-size="13" font-family="'DejaVu Sans Mono', -apple-system, BlinkMacSystemFont, 'Segoe UI', Roboto, Helvetica, Arial, sans-serif, 'Apple Color Emoji', 'Segoe UI Emoji', 'Segoe UI Symbol'" x="30.984375" y="26.4375">
				 
			</text>
			<text fill="#23A3DD" font-size="13" font-weight="600" font-family="'DejaVu Sans Mono', -apple-system, BlinkMacSystemFont, 'Segoe UI', Roboto, Helvetica, Arial, sans-serif, 'Apple Color Emoji', 'Segoe UI Emoji', 'Segoe UI Symbol'" x="38.8125" y="26.4375">
				gitops-repo
			</text>
			<text fill="#777" font-size="13" font-family="'DejaVu Sans Mono', -apple-system, BlinkMacSystemFont, 'Segoe UI', Roboto, Helvetica, Arial, sans-serif, 'Apple Color Emoji', 'Segoe UI Emoji', 'Segoe UI Symbol'" x="8" y="42">
				 
			</text>
			<text fill="#777" font-size="13" font-family="'DejaVu Sans Mono', -apple-system, BlinkMacSystemFont, 'Segoe UI', Roboto, Helvetica, Arial, sans-serif, 'Apple Color Emoji', 'Segoe UI Emoji', 'Segoe UI Symbol'" x="15.828125" y="42">
				├─ 
			</text>
			<clipPath id="cl_3">
				<rect x="41" y="31" width="13" height="13"/>
			</clipPath>
			<clipPath id="cl_4" clip-path="url(#cl_3)">
				<rect x="41" y="31" width="13" height="13"/>
			</clipPath>
			<g clip-path="url(#cl_4)">
				<path fill="#269" transform="matrix(0.361111 0 0 0.361111 41 31)" d="M0 29C0 31.209 1.791 33 4 33L28 33C30.209 33 32 31.209 32 29L32 12C32 9.791 30.209 8 28 8L19 8C15.438 8 16 3 10.562 3L4 3C1.791 3 0 4.791 0 7L0 29Z"/>
			</g>
			<g clip-path="url(#cl_4)">
				<path fill="#55ACEE" transform="matrix(0.361111 0 0 0.361111 41 31)" d="M30 10L23.438 10C18 10 18.562 15 15 15L6 15C3.791 15 2 16.791 2 19L2 29C2 29.553 1.552 30 1 30C0.448 30 0 29.553 0 29C0 31.209 1.791 33 4 33L30 33C32.209 33 34 31.209 34 29L34 14C34 11.791 32.209 10 30 10Z"/>
			</g>
			<text fill="#777" font-size="13" font-family="'DejaVu Sans Mono', -apple-system, BlinkMacSystemFont, 'Segoe UI', Roboto, Helvetica, Arial, sans-serif, 'Apple Color Emoji', 'Segoe UI Emoji', 'Segoe UI Symbol'" x="54.25" y="42">
				 
			</text>
			<text fill="#23A3DD" font-size="13" font-weight="600" font-family="'DejaVu Sans Mono', -apple-system, BlinkMacSystemFont, 'Segoe UI', Roboto, Helvetica, Arial, sans-serif, 'Apple Color Emoji', 'Segoe UI Emoji', 'Segoe UI Symbol'" x="62.078125" y="42">
				app1
			</text>
			<text fill="#777" font-size="13" font-family="'DejaVu Sans Mono', -apple-system, BlinkMacSystemFont, 'Segoe UI', Roboto, Helvetica, Arial, sans-serif, 'Apple Color Emoji', 'Segoe UI Emoji', 'Segoe UI Symbol'" x="8" y="57">
				 
			</text>
			<text fill="#777" font-size="13" font-family="'DejaVu Sans Mono', -apple-system, BlinkMacSystemFont, 'Segoe UI', Roboto, Helvetica, Arial, sans-serif, 'Apple Color Emoji', 'Segoe UI Emoji', 'Segoe UI Symbol'" x="15.828125" y="57">
				│  
			</text>
			<text fill="#777" font-size="13" font-family="'DejaVu Sans Mono', -apple-system, BlinkMacSystemFont, 'Segoe UI', Roboto, Helvetica, Arial, sans-serif, 'Apple Color Emoji', 'Segoe UI Emoji', 'Segoe UI Symbol'" x="39.3125" y="57">
				├─ 
			</text>
			<clipPath id="cl_5">
				<rect x="64" y="46" width="13" height="13"/>
			</clipPath>
			<clipPath id="cl_6" clip-path="url(#cl_5)">
				<rect x="64" y="46" width="13" height="13"/>
			</clipPath>
			<g clip-path="url(#cl_6)">
				<path fill="#66757F" transform="matrix(0.361111 0 0 0.361111 64 46)" d="M34 15L30.638 15C30.314 13.631 29.774 12.349 29.056 11.186L31.435 8.807C32.216 8.026 32.216 6.759 31.435 5.978L30.021 4.564C29.24 3.783 27.974 3.783 27.193 4.564L24.814 6.943C23.65 6.225 22.369 5.686 21 5.362L21 2C21 0.896 20.104 0 19 0L17 0C15.896 0 15 0.896 15 2L15 5.362C13.631 5.686 12.349 6.226 11.186 6.944L8.808 4.565C8.027 3.784 6.76 3.784 5.98 4.565L4.565 5.979C3.784 6.76 3.784 8.027 4.564 8.808L6.943 11.187C6.225 12.35 5.686 13.632 5.362 15L2 15C0.896 15 0 15.896 0 17L0 19C0 20.104 0.896 21 2 21L5.362 21C5.686 22.368 6.226 23.65 6.944 24.813L4.565 27.192C3.785 27.972 3.785 29.24 4.566 30.021L5.98 31.435C6.76 32.215 8.027 32.215 8.808 31.435L11.187 29.056C12.35 29.775 13.632 30.314 15.001 30.638L15.001 34C15.001 35.104 15.897 36 17.001 36L19.001 36C20.105 36 21.001 35.104 21.001 34L21.001 30.638C22.369 30.314 23.651 29.774 24.814 29.056L27.193 31.435C27.974 32.216 29.24 32.216 30.021 31.435L31.435 30.021C32.216 29.24 32.216 27.973 31.435 27.192L29.056 24.813C29.775 23.65 30.314 22.368 30.638 20.999L34 20.999C35.104 20.999 36 20.103 36 18.999L36 16.999C36 15.896 35.104 15 34 15ZM18 26C13.582 26 10 22.418 10 18C10 13.582 13.582 10 18 10C22.418 10 26 13.582 26 18C26 22.418 22.418 26 18 26Z"/>
			</g>
			<text fill="#777" font-size="13" font-family="'DejaVu Sans Mono', -apple-system, BlinkMacSystemFont, 'Segoe UI', Roboto, Helvetica, Arial, sans-serif, 'Apple Color Emoji', 'Segoe UI Emoji', 'Segoe UI Symbol'" x="77.734375" y="57">
				 deployment.yaml
			</text>
			<text fill="#777" font-size="13" font-family="'DejaVu Sans Mono', -apple-system, BlinkMacSystemFont, 'Segoe UI', Roboto, Helvetica, Arial, sans-serif, 'Apple Color Emoji', 'Segoe UI Emoji', 'Segoe UI Symbol'" x="8" y="72">
				 
			</text>
			<text fill="#777" font-size="13" font-family="'DejaVu Sans Mono', -apple-system, BlinkMacSystemFont, 'Segoe UI', Roboto, Helvetica, Arial, sans-serif, 'Apple Color Emoji', 'Segoe UI Emoji', 'Segoe UI Symbol'" x="15.828125" y="72">
				│  
			</text>
			<text fill="#777" font-size="13" font-family="'DejaVu Sans Mono', -apple-system, BlinkMacSystemFont, 'Segoe UI', Roboto, Helvetica, Arial, sans-serif, 'Apple Color Emoji', 'Segoe UI Emoji', 'Segoe UI Symbol'" x="39.3125" y="72">
				└─ 
			</text>
			<clipPath id="cl_7">
				<rect x="64" y="61" width="13" height="13"/>
			</clipPath>
			<clipPath id="cl_8" clip-path="url(#cl_7)">
				<rect x="64" y="61" width="13" height="13"/>
			</clipPath>
			<g clip-path="url(#cl_8)">
				<path fill="#66757F" transform="matrix(0.361111 0 0 0.361111 64 61)" d="M34 15L30.638 15C30.314 13.631 29.774 12.349 29.056 11.186L31.435 8.807C32.216 8.026 32.216 6.759 31.435 5.978L30.021 4.564C29.24 3.783 27.974 3.783 27.193 4.564L24.814 6.943C23.65 6.225 22.369 5.686 21 5.362L21 2C21 0.896 20.104 0 19 0L17 0C15.896 0 15 0.896 15 2L15 5.362C13.631 5.686 12.349 6.226 11.186 6.944L8.808 4.565C8.027 3.784 6.76 3.784 5.98 4.565L4.565 5.979C3.784 6.76 3.784 8.027 4.564 8.808L6.943 11.187C6.225 12.35 5.686 13.632 5.362 15L2 15C0.896 15 0 15.896 0 17L0 19C0 20.104 0.896 21 2 21L5.362 21C5.686 22.368 6.226 23.65 6.944 24.813L4.565 27.192C3.785 27.972 3.785 29.24 4.566 30.021L5.98 31.435C6.76 32.215 8.027 32.215 8.808 31.435L11.187 29.056C12.35 29.775 13.632 30.314 15.001 30.638L15.001 34C15.001 35.104 15.897 36 17.001 36L19.001 36C20.105 36 21.001 35.104 21.001 34L21.001 30.638C22.369 30.314 23.651 29.774 24.814 29.056L27.193 31.435C27.974 32.216 29.24 32.216 30.021 31.435L31.435 30.021C32.216 29.24 32.216 27.973 31.435 27.192L29.056 24.813C29.775 23.65 30.314 22.368 30.638 20.999L34 20.999C35.104 20.999 36 20.103 36 18.999L36 16.999C36 15.896 35.104 15 34 15ZM18 26C13.582 26 10 22.418 10 18C10 13.582 13.582 10 18 10C22.418 10 26 13.582 26 18C26 22.418 22.418 26 18 26Z"/>
			</g>
			<text fill="#777" font-size="13" font-family="'DejaVu Sans Mono', -apple-system, BlinkMacSystemFont, 'Segoe UI', Roboto, Helvetica, Arial, sans-serif, 'Apple Color Emoji', 'Segoe UI Emoji', 'Segoe UI Symbol'" x="77.734375" y="72">
				 service.yaml
			</text>
			<text fill="#777" font-size="13" font-family="'DejaVu Sans Mono', -apple-system, BlinkMacSystemFont, 'Segoe UI', Roboto, Helvetica, Arial, sans-serif, 'Apple Color Emoji', 'Segoe UI Emoji', 'Segoe UI Symbol'" x="8" y="87">
				 
			</text>
			<text fill="#777" font-size="13" font-family="'DejaVu Sans Mono', -apple-system, BlinkMacSystemFont, 'Segoe UI', Roboto, Helvetica, Arial, sans-serif, 'Apple Color Emoji', 'Segoe UI Emoji', 'Segoe UI Symbol'" x="15.828125" y="87">
				└─ 
			</text>
			<clipPath id="cl_9">
				<rect x="41" y="76" width="13" height="13"/>
			</clipPath>
			<clipPath id="cl_a" clip-path="url(#cl_9)">
				<rect x="41" y="76" width="13" height="13"/>
			</clipPath>
			<g clip-path="url(#cl_a)">
				<path fill="#269" transform="matrix(0.361111 0 0 0.361111 41 76)" d="M0 29C0 31.209 1.791 33 4 33L28 33C30.209 33 32 31.209 32 29L32 12C32 9.791 30.209 8 28 8L19 8C15.438 8 16 3 10.562 3L4 3C1.791 3 0 4.791 0 7L0 29Z"/>
			</g>
			<g clip-path="url(#cl_a)">
				<path fill="#55ACEE" transform="matrix(0.361111 0 0 0.361111 41 76)" d="M30 10L23.438 10C18 10 18.562 15 15 15L6 15C3.791 15 2 16.791 2 19L2 29C2 29.553 1.552 30 1 30C0.448 30 0 29.553 0 29C0 31.209 1.791 33 4 33L30 33C32.209 33 34 31.209 34 29L34 14C34 11.791 32.209 10 30 10Z"/>
			</g>
			<text fill="#777" font-size="13" font-family="'DejaVu Sans Mono', -apple-system, BlinkMacSystemFont, 'Segoe UI', Roboto, Helvetica, Arial, sans-serif, 'Apple Color Emoji', 'Segoe UI Emoji', 'Segoe UI Symbol'" x="54.25" y="87">
				 
			</text>
			<text fill="#23A3DD" font-size="13" font-weight="600" font-family="'DejaVu Sans Mono', -apple-system, BlinkMacSystemFont, 'Segoe UI', Roboto, Helvetica, Arial, sans-serif, 'Apple Color Emoji', 'Segoe UI Emoji', 'Segoe UI Symbol'" x="62.078125" y="87">
				app2
			</text>
			<text fill="#777" font-size="13" font-family="'DejaVu Sans Mono', -apple-system, BlinkMacSystemFont, 'Segoe UI', Roboto, Helvetica, Arial, sans-serif, 'Apple Color Emoji', 'Segoe UI Emoji', 'Segoe UI Symbol'" x="8" y="102">
				    
			</text>
			<text fill="#777" font-size="13" font-family="'DejaVu Sans Mono', -apple-system, BlinkMacSystemFont, 'Segoe UI', Roboto, Helvetica, Arial, sans-serif, 'Apple Color Emoji', 'Segoe UI Emoji', 'Segoe UI Symbol'" x="39.3125" y="102">
				└─ 
			</text>
			<clipPath id="cl_b">
				<rect x="64" y="91" width="13" height="13"/>
			</clipPath>
			<clipPath id="cl_c" clip-path="url(#cl_b)">
				<rect x="64" y="91" width="13" height="13"/>
			</clipPath>
			<g clip-path="url(#cl_c)">
				<path fill="#66757F" transform="matrix(0.361111 0 0 0.361111 64 91)" d="M34 15L30.638 15C30.314 13.631 29.774 12.349 29.056 11.186L31.435 8.807C32.216 8.026 32.216 6.759 31.435 5.978L30.021 4.564C29.24 3.783 27.974 3.783 27.193 4.564L24.814 6.943C23.65 6.225 22.369 5.686 21 5.362L21 2C21 0.896 20.104 0 19 0L17 0C15.896 0 15 0.896 15 2L15 5.362C13.631 5.686 12.349 6.226 11.186 6.944L8.808 4.565C8.027 3.784 6.76 3.784 5.98 4.565L4.565 5.979C3.784 6.76 3.784 8.027 4.564 8.808L6.943 11.187C6.225 12.35 5.686 13.632 5.362 15L2 15C0.896 15 0 15.896 0 17L0 19C0 20.104 0.896 21 2 21L5.362 21C5.686 22.368 6.226 23.65 6.944 24.813L4.565 27.192C3.785 27.972 3.785 29.24 4.566 30.021L5.98 31.435C6.76 32.215 8.027 32.215 8.808 31.435L11.187 29.056C12.35 29.775 13.632 30.314 15.001 30.638L15.001 34C15.001 35.104 15.897 36 17.001 36L19.001 36C20.105 36 21.001 35.104 21.001 34L21.001 30.638C22.369 30.314 23.651 29.774 24.814 29.056L27.193 31.435C27.974 32.216 29.24 32.216 30.021 31.435L31.435 30.021C32.216 29.24 32.216 27.973 31.435 27.192L29.056 24.813C29.775 23.65 30.314 22.368 30.638 20.999L34 20.999C35.104 20.999 36 20.103 36 18.999L36 16.999C36 15.896 35.104 15 34 15ZM18 26C13.582 26 10 22.418 10 18C10 13.582 13.582 10 18 10C22.418 10 26 13.582 26 18C26 22.418 22.418 26 18 26Z"/>
			</g>
			<text fill="#777" font-size="13" font-family="'DejaVu Sans Mono', -apple-system, BlinkMacSystemFont, 'Segoe UI', Roboto, Helvetica, Arial, sans-serif, 'Apple Color Emoji', 'Segoe UI Emoji', 'Segoe UI Symbol'" x="77.734375" y="102">
				 values.yaml
			</text>
		</g>
	</defs>
	<use href="#group_0"/>
</svg>
